<?xml version="1.0" encoding="utf-8"?>
<!-- Generator: Adobe Illustrator 16.0.0, SVG Export Plug-In . SVG Version: 6.00 Build 0)  -->
<!DOCTYPE svg PUBLIC "-//W3C//DTD SVG 1.1//EN" "http://www.w3.org/Graphics/SVG/1.1/DTD/svg11.dtd">
<svg version="1.1" id="Layer_1" xmlns="http://www.w3.org/2000/svg" xmlns:xlink="http://www.w3.org/1999/xlink" x="0px" y="0px"
	 width="561px" height="311.41px" viewBox="0 0 561 311.41" enable-background="new 0 0 561 311.41" xml:space="preserve">
<g>
	<g>
		<g>
			<path fill="#FFFFFF" d="M303.743,6.366c17.578,4.745,33.296,14.039,45.794,26.543l0.014,0.005l0.004,0.011
				c17.591,17.59,28.828,41.529,29.98,68.066c-3.638-25.721-21.144-51.187-40.937-66.235c-2.401-2.101-4.908-4.075-7.525-5.922
				l-2.536-3.234C321.165,16.218,312.729,10.015,303.743,6.366 M376.096,132.345c-4.741,17.575-14.038,33.289-26.541,45.796
				l-0.004,0.004l-0.014,0.009c-17.595,17.586-41.528,28.819-68.067,29.972c25.72-3.625,51.186-21.14,66.237-40.938
				c2.101-2.396,4.078-4.9,5.918-7.519l3.23-2.538C366.242,149.759,372.448,141.315,376.096,132.345 M250.122,204.689
				c-17.575-4.744-33.287-14.034-45.787-26.535l-0.014-0.009l-0.004-0.004c-17.595-17.6-28.823-41.538-29.985-68.073
				c3.631,25.721,21.151,51.187,40.938,66.236c2.402,2.103,4.906,4.076,7.524,5.921l2.531,3.234
				C232.698,194.833,241.149,201.04,250.122,204.689 M177.769,78.714c4.748-17.577,14.044-33.287,26.548-45.789l0.004-0.011
				l0.014-0.005c17.588-17.591,41.527-28.826,68.058-29.988c-25.718,3.641-51.183,21.154-66.238,40.945
				c-2.09,2.403-4.074,4.911-5.915,7.521l-3.234,2.542C187.624,61.305,181.418,69.744,177.769,78.714"/>
			<path fill="#FFFFFF" d="M231.218,180.831c51.401,49.486,73.745-87.411,113.722-63.551
				C384.923,141.138,281.772,245.131,231.218,180.831"/>
			<path fill="#FFFFFF" d="M352.237,151.241c49.482-51.398-87.414-73.745-63.555-113.72
				C312.541-2.461,416.535,100.698,352.237,151.241"/>
			<path fill="#FFFFFF" d="M322.651,30.226c-51.405-49.483-73.748,87.411-113.726,63.551
				C168.939,69.917,272.099-34.071,322.651,30.226"/>
			<path fill="#FFFFFF" d="M201.627,59.811c-49.481,51.404,87.417,73.751,63.561,113.726
				C241.324,213.519,137.333,110.36,201.627,59.811"/>
		</g>
		<g>
			<polygon fill="#FFFFFF" points="214.582,254.517 266.278,254.517 266.278,267.596 214.582,267.596 214.582,277.195 
				266.278,277.195 266.278,294.391 193.869,294.391 193.869,227.71 266.278,227.71 266.278,245.006 214.582,245.006 			"/>
			<path fill="#FFFFFF" d="M542.416,236.778c-7.528-6.042-17.172-9.067-28.948-9.067h-20.063c-11.779,0-21.441,3.025-28.99,9.067
				c-7.557,6.046-11.329,13.937-11.329,23.677c0,9.744,3.813,17.832,11.42,24.272c7.613,6.438,17.245,9.664,28.899,9.664h20.063
				c11.598,0,21.196-3.227,28.809-9.664c7.608-6.44,11.415-14.528,11.415-24.272C553.691,250.714,549.94,242.824,542.416,236.778z
				 M527.611,272.8c-3.689,2.925-8.409,4.395-14.144,4.395h-20.063c-5.741,0-10.453-1.47-14.149-4.395
				c-3.697-2.929-5.55-6.768-5.55-11.512c0-4.75,1.853-8.648,5.55-11.706c3.696-3.049,8.408-4.576,14.149-4.576h20.063
				c5.675,0,10.38,1.527,14.104,4.576c3.731,3.058,5.601,6.956,5.601,11.706C533.173,266.033,531.313,269.872,527.611,272.8z"/>
			<polygon fill="#FFFFFF" points="426.638,298.35 418.871,307.949 397.555,307.949 405.317,298.35 			"/>
			<path fill="#FFFFFF" d="M453.044,277.195l-13.311,17.196h-35.989c-20.179,0-37.719-12.347-37.719-33.937
				c0-9.74,3.762-17.631,11.279-23.677c7.523-6.042,17.171-9.067,28.95-9.067h46.789l-13.311,17.296h-33.479
				c-5.675,0-10.355,1.527-14.06,4.576c-3.7,3.058-5.546,6.956-5.546,11.706c0,4.676,1.846,8.507,5.546,11.459
				c3.704,2.961,8.385,4.447,14.06,4.447H453.044z"/>
			<path fill="#FFFFFF" d="M270.234,227.71h55.578c10.421,0,18.867,1.985,25.338,5.921c7.274,4.503,10.914,10.916,10.914,19.233
				c0,4.689-1.468,8.932-4.391,12.725c-2.937,3.787-6.98,6.703-12.163,8.737l24.135,20.064h-30.052l-20.164-16.735H290.95v16.735
				h-20.716v-34.029h57.519c3.519,0,6.418-0.523,8.694-1.579c2.89-1.357,4.348-3.352,4.348-6.002c0-5.18-4.348-7.774-13.042-7.774
				h-57.519V227.71z"/>
			<path fill="#FFFFFF" d="M104.875,227.71h44.665c11.768,0,21.426,3.025,28.936,9.067c7.529,6.046,11.287,13.937,11.287,23.677
				c0,9.744-3.807,17.832-11.426,24.272c-7.605,6.438-17.208,9.664-28.797,9.664h-44.665v-41.61h20.714v24.414h23.951
				c5.726,0,10.442-1.47,14.145-4.395c3.707-2.929,5.547-6.768,5.547-11.512c0-4.75-1.867-8.648-5.597-11.706
				c-3.73-3.049-8.421-4.576-14.094-4.576h-44.665V227.71z"/>
			<path fill="#FFFFFF" d="M89.506,236.778c-7.523-6.042-17.172-9.067-28.946-9.067H40.496c-11.778,0-21.441,3.025-28.99,9.067
				c-7.559,6.046-11.331,13.937-11.331,23.677c0,9.744,3.803,17.832,11.424,24.272c7.613,6.438,17.244,9.664,28.897,9.664H60.56
				c11.593,0,21.193-3.227,28.811-9.664c7.605-6.44,11.417-14.528,11.417-24.272C100.788,250.714,97.03,242.824,89.506,236.778z
				 M74.711,272.8c-3.7,2.925-8.415,4.395-14.151,4.395H40.496c-5.735,0-10.455-1.47-14.146-4.395
				c-3.702-2.929-5.557-6.768-5.557-11.512c0-4.75,1.855-8.648,5.557-11.706c3.691-3.049,8.411-4.576,14.146-4.576H60.56
				c5.669,0,10.369,1.527,14.104,4.576c3.732,3.058,5.597,6.956,5.597,11.706C80.261,266.033,78.41,269.872,74.711,272.8z"/>
		</g>
	</g>
	<!-- <g>
		<path fill="#FFFFFF" d="M553.691,227.71L553.691,227.71v0.004c1.794,0,3.411,0.721,4.582,1.901l0,0
			c1.175,1.168,1.898,2.791,1.901,4.575l0,0v0.008l0,0l0,0c-0.003,1.784-0.727,3.408-1.901,4.576v0.004
			c-1.171,1.173-2.788,1.897-4.578,1.897v0.004h-0.004h-0.002v-0.004c-1.786,0-3.407-0.725-4.58-1.901l0,0
			c-1.172-1.168-1.901-2.788-1.901-4.576l0,0l0,0v-0.004l0,0c0-1.788,0.733-3.411,1.901-4.583h0.002
			c1.171-1.177,2.792-1.897,4.576-1.897v-0.004H553.691L553.691,227.71z M553.691,228.456L553.691,228.456L553.691,228.456h-0.004
			l0,0c-1.581,0-3.015,0.645-4.054,1.68l0,0c-1.04,1.038-1.682,2.474-1.682,4.06l0,0v0.004l0,0l0,0c0,1.584,0.642,3.018,1.682,4.053
			l0,0c1.039,1.043,2.473,1.688,4.056,1.688l0,0h0.002h0.004l0,0c1.583,0,3.021-0.646,4.059-1.688l0,0
			c1.039-1.035,1.684-2.469,1.684-4.053l0,0l0,0v-0.008l0,0c0-1.582-0.645-3.018-1.684-4.051l0,0
			C556.717,229.1,555.276,228.456,553.691,228.456L553.691,228.456z"/>
		<path fill="#FFFFFF" d="M551.277,238.235v-8.306h3.017c0.63,0,1.095,0.076,1.399,0.234c0.298,0.153,0.546,0.41,0.737,0.773
			c0.196,0.362,0.292,0.776,0.292,1.252c0,0.625-0.168,1.132-0.489,1.527c-0.329,0.387-0.809,0.636-1.427,0.74
			c0.253,0.154,0.445,0.303,0.574,0.46c0.274,0.318,0.508,0.673,0.711,1.059l1.19,2.26h-1.133l-0.907-1.728
			c-0.355-0.673-0.614-1.128-0.793-1.365c-0.185-0.234-0.357-0.392-0.523-0.472c-0.17-0.08-0.405-0.12-0.706-0.12h-1.045v3.685
			H551.277L551.277,238.235z M552.175,233.595h1.941c0.421,0,0.738-0.049,0.963-0.153c0.217-0.104,0.39-0.262,0.521-0.483
			c0.128-0.218,0.192-0.472,0.192-0.762c0-0.418-0.12-0.748-0.371-0.986c-0.241-0.241-0.608-0.362-1.091-0.362h-2.155V233.595
			L552.175,233.595z"/>
	</g> -->
</g>
</svg>
